<?xml version="1.0" encoding="utf-8"?>
<!-- Generator: Adobe Illustrator 19.0.0, SVG Export Plug-In . SVG Version: 6.00 Build 0)  -->
<svg version="1.1" id="Layer_1" xmlns="http://www.w3.org/2000/svg" xmlns:xlink="http://www.w3.org/1999/xlink" x="0px" y="0px"
	 viewBox="-90 169 819 664" style="enable-background:new -90 169 819 664;" xml:space="preserve">
<style type="text/css">
	.st0{opacity:0.35;}
	.st1{fill:#FFEC00;}
	.st2{fill:#5D5D5D;}
	.st3{font-family:'Sunflower';}
	.st4{font-size:96.5147px;}
	.st5{font-size:53.3946px;}
	.st6{opacity:0.35;fill:#5D5D5D;enable-background:new    ;}
	.st7{font-family:'ArialMT';}
	.st8{font-size:51.2954px;}
</style>
<g id="XMLID_5_" class="st0">
	<path id="XMLID_13_" class="st1" d="M109.1,370.1c0,0-48.3,24.6-18.6,78l16.6-21.5c2.7-1.1,5.8-0.6,7.8,1.3
		c2.4,2.2,2.9,5.8,1.4,8.8c-16.7,11.9-23.7,33.2-17.4,51.7c5.5,16.2,20.3,27.9,37.9,30c4.9,0.2,12.9-0.1,21.8-3.5
		c12.3-4.8,19.4-13,23.7-18c2.1-2.5,9.9-12.1,14.9-28.6c5.4-17.9,1.7-26.3,4.1-39.2c2.3-12,9.9-28,33.7-44.8c0,0,6.7-0.8,8.2,4.3
		s-2,8.2-2,8.2S211,409.9,213.7,453c0,1.7,0,3.4-0.2,5.3c-0.6,7.5-2.4,13.9-4.4,19c5.5,0.9,10.2,0.7,13.6,0.3
		c3.1-0.3,8.9-1,15.6-4.4c4.8-2.4,8.4-5.3,10.7-7.5c-0.9-4.1-1.6-9.3-0.9-15.2c1.1-9.1,5.1-21,17.1-32.6c2.8-2.5,9.9-9.4,12.2-20.6
		c0.5-2.5,1.5-7.7,0-13.7c-0.8-3.2-1-11.4-17.8-22c-20.8-13.1-24.4-22.8-26.6-32.7c-1.6-7.2-1.5-15.1-1.5-15.1
		c0.1-4.1,0.5-7.6,0.9-10.2c2.1-6.2,4.2-12.5,6.4-18.7c0,0-36-24.6-62.2,15.8c2.6,0.6,28.8,6.8,38.1,30.7
		c4.2,10.9,3.2,20.8,2.2,26.1c-7.3,21.7-17.2,32.4-25.3,38.2c-3.9,2.8-10.3,6.6-18,14.3c-6.3,6.4-10.6,12.5-13.2,16.7
		c-1.1,2-2.1,4.3-3.1,6.8c-1.7,4.2-2.8,8.1-3.6,11.6c0,2.4-0.1,4.9-0.1,7.4c-0.1,2.9-0.2,5.7-0.4,8.4c-0.6,3.1-3,5.5-6,6
		c-3.5,0.5-7-1.9-8-5.6c-0.3-3.4-0.5-7.5-0.1-12.1c0.3-3.9,0.9-7.3,1.5-10.3c1.5-5.4,3.8-11.4,7.1-17.6c11.7-21.9,29.9-33.6,40-39
		c0,0,38.8-41.5-8.1-67.4c0,0-44.7-11.3-56.2,37.7c0,0-2,11.8,1.5,19.1l5.8,26.3c0,0-0.1,7.9-5.2,8.7c0,0-6.9,1.1-8.6-4.1
		L109.1,370.1z"/>
	<path id="XMLID_8_" class="st1" d="M272.9,274c0,0-30.2,13.3-26.7,44.5c0,0-3.8,17.4,23.9,31.9c0,0,38.7,29.4,14.8,63.4
		c0,0-4.9,9.8-13.8,17.6c-8.9,7.8-10.3,26.3-10.3,26.3s4.8,29.6,38.2,27.3s37.7-35.8,37.7-35.8s3.3-14.6,0-28.4s9.3-10.3,9.3-10.3
		s8.3,6,5.5,24.4c0,0,0.3,12.1-6.5,27.7c0,0,25.1,20.9,49-7c1.5-2.9,3.6-8.2,3.9-15.1c0.3-8.4-2.5-14.7-3.5-16.7
		c-2.9-6-7-9.8-9.4-11.7c-0.1-0.2-2.9-4.6-0.7-8.4c0.2-0.4,1.1-1.8,2.7-2.6c4.2-2,9.5,2.2,10.6,3c2,1.6,3.2,3.3,5.4,6.5
		c1.5,2.2,2.6,4.1,3.3,5.5c1-0.5,2.1-1.2,3.2-2.1c4.7-3.8,6.6-8.8,7.3-11.6c4.3-1.8,8.5-1.7,10.2,0.5c0.9,1.1,1.1,2.6,1.2,3.9
		c0.3,3.5-1.1,6.2-1.8,7.5c-0.9,1.6-2,3.4-3.5,5.2c-2.4,3-6.1,6.6-11.4,9.5l-0.6,25.3c0,0,9.6,6.3,23-3.8c0,0,7-6.5,6.8-20
		c0,0,13.3-1.7,17.8-14.3s-6.7-25-6.7-25s-8.6-15.6-40.2-8c0,0-9.2-26-37.6-31.5c0,0-29.7-5.7-48.6,21.6c0,0-8.2,4-10.8-2
		s2.7-10,2.7-10l13.3-12.8c0,0-5.7-20.6-35.5-25.1l-13.1-0.3c0,0-7.9-3-5.7-8.4c2.2-5.4,7.4-6,7.4-6s42.2-1.5,59.3,32.9
		c0,0,43.6-19.4,75.7,25.3l25.6,1.9c0,0,8-44.5-50.1-43c0,0-9.9-55-63.7-25.8C330.4,299.7,309.7,258.2,272.9,274z"/>
	<path id="XMLID_25_" class="st1" d="M271.1,504.9h-69.7l-4.9,37.8c7.8,10,13.7,19.5,18,27.3c4.3,7.9,7.3,15,12.4,26.8
		c3.5,8.2,6.3,15.2,8.3,20.2c0.2,0.7,0.4,1.5,0.6,2.2c-2.8,1-4.9,3.8-4.9,7.1c0,4.1,3.1,7.5,7,7.5c3.8,0,7-3.4,7-7.5
		c0-3.5-2.2-6.4-5.1-7.2c0.2-0.7,0.4-1.5,0.6-2.2c1.8-5.1,4.4-12.1,7.7-20.4c4.7-11.9,7.5-19.2,11.6-27.2
		c4.1-7.9,9.6-17.6,17.2-27.9L271.1,504.9z M240.7,545.4c-1.3,40.2-2.1,62.9-2.5,73.5c-0.1,0-0.2,0-0.2,0c-0.2,0-0.3,0-0.5,0
		c-0.7-12.1-2.4-38.4-4.6-73.4c-4.2-1.7-7.3-6.2-7.4-11.5c-0.1-6.8,4.8-12.5,10.9-12.6s11.2,5.3,11.3,12.2
		C247.8,539,244.9,543.5,240.7,545.4z"/>
	<path id="XMLID_19_" class="st1" d="M272,500.7h-71.3c2.4-2.6,4.9-6,6.8-10.4c0.6-1.4,1.2-2.8,1.6-4.1c2.5,0.6,5.2,1.1,8.1,1.2
		c16.3,0.9,28.8-8,34-12.3c0.7,3.2,2.5,9.3,7.4,15.3C263.3,496.2,268.7,499.2,272,500.7z"/>
</g>
<text transform="matrix(1 0 0 1 292.1333 575.6053)" class="st2 st3 st4">SK</text>
<text transform="matrix(1 0 0 1 418.9333 575.6053)" class="st2 st3 st5">  </text>
<text id="XMLID_7_" transform="matrix(1 0 0 1 296.686 633.7723)" class="st6 st7 st8">Design Studio </text>
</svg>
