<?xml version="1.0" encoding="utf-8"?>
<!-- Generator: Adobe Illustrator 19.0.0, SVG Export Plug-In . SVG Version: 6.00 Build 0)  -->
<svg version="1.1" id="Layer_1" xmlns="http://www.w3.org/2000/svg" xmlns:xlink="http://www.w3.org/1999/xlink" x="0px" y="0px"
	 viewBox="0 0 500 500" style="enable-background:new 0 0 500 500;" xml:space="preserve">
<style type="text/css">
	.st0{fill:#F6EC13;}
	.st1{fill:#FFFFFF;}
	.st2{font-family:'Sunflower';}
	.st3{font-size:60.7435px;}
	.st4{font-size:33.605px;}
	.st5{fill:#CDD6D6;}
	.st6{font-family:'Swiss721BT-BoldCondensed';}
	.st7{font-size:32.2838px;}
</style>
<rect id="XMLID_1_" x="74.1" y="74.3" transform="matrix(0.7071 -0.7071 0.7071 0.7071 -103.6418 250.0366)" width="351.7" height="351.7"/>
<g id="XMLID_2_">
	<g id="XMLID_5_">
		<path id="XMLID_13_" class="st0" d="M94.4,187.3c0,0-30.4,15.5-11.7,49.1l10.4-13.5c1.7-0.7,3.6-0.4,4.9,0.8
			c1.5,1.4,1.9,3.7,0.9,5.6C88.4,236.7,84,250.1,88,261.8c3.5,10.2,12.8,17.5,23.8,18.9c3.1,0.1,8.1,0,13.7-2.2
			c7.8-3,12.2-8.2,14.9-11.3c1.3-1.6,6.2-7.6,9.4-18c3.4-11.3,1.1-16.5,2.6-24.7c1.4-7.6,6.2-17.6,21.2-28.2c0,0,4.2-0.5,5.2,2.7
			c1,3.2-1.3,5.1-1.3,5.1s-19,8.2-17.3,35.3c0,1.1,0,2.2-0.1,3.3c-0.4,4.7-1.5,8.8-2.8,12c3.5,0.6,6.4,0.4,8.5,0.2
			c1.9-0.2,5.6-0.7,9.8-2.7c3-1.5,5.3-3.3,6.7-4.7c-0.6-2.6-1-5.8-0.5-9.6c0.7-5.7,3.2-13.2,10.8-20.5c1.8-1.6,6.2-5.9,7.6-13
			c0.3-1.6,0.9-4.8,0-8.6c-0.5-2-0.6-7.2-11.2-13.9c-13.1-8.3-15.3-14.4-16.7-20.6c-1-4.5-0.9-9.5-0.9-9.5c0-2.6,0.3-4.8,0.6-6.4
			c1.3-3.9,2.7-7.8,4-11.8c0,0-22.7-15.5-39.1,9.9c1.6,0.4,18.1,4.3,23.9,19.3c2.7,6.8,2,13.1,1.4,16.4
			c-4.6,13.7-10.8,20.4-15.9,24.1c-2.4,1.7-6.5,4.2-11.3,9c-4,4-6.6,7.9-8.3,10.5c-0.7,1.3-1.3,2.7-2,4.3c-1.1,2.6-1.8,5.1-2.3,7.3
			c0,1.5,0,3.1-0.1,4.7c-0.1,1.8-0.1,3.6-0.2,5.3c-0.4,2-1.9,3.5-3.8,3.7c-2.2,0.3-4.4-1.2-5-3.5c-0.2-2.2-0.3-4.7-0.1-7.6
			c0.2-2.4,0.5-4.6,0.9-6.5c1-3.4,2.4-7.2,4.5-11.1c7.4-13.8,18.8-21.1,25.2-24.5c0,0,24.4-26.1-5.1-42.4c0,0-28.1-7.1-35.4,23.7
			c0,0-1.3,7.4,0.9,12l3.6,16.5c0,0-0.1,5-3.2,5.5c0,0-4.4,0.7-5.4-2.6L94.4,187.3z"/>
		<path id="XMLID_8_" class="st0" d="M197.5,126.8c0,0-19,8.4-16.8,28c0,0-2.4,10.9,15,20.1c0,0,24.4,18.5,9.3,39.9
			c0,0-3.1,6.2-8.7,11.1c-5.6,4.9-6.5,16.6-6.5,16.6s3,18.6,24.1,17.2c21.1-1.5,23.7-22.5,23.7-22.5s2.1-9.2,0-17.9
			c-2.1-8.7,5.9-6.5,5.9-6.5s5.2,3.8,3.5,15.4c0,0,0.2,7.6-4.1,17.4c0,0,15.8,13.1,30.9-4.4c0.9-1.8,2.3-5.1,2.4-9.5
			c0.2-5.3-1.6-9.2-2.2-10.5c-1.9-3.8-4.4-6.2-5.9-7.4c-0.1-0.1-1.8-2.9-0.5-5.3c0.1-0.3,0.7-1.2,1.7-1.6c2.7-1.2,6,1.4,6.6,1.9
			c1.3,1,2,2.1,3.4,4.1c0.9,1.4,1.6,2.6,2.1,3.5c0.6-0.3,1.3-0.8,2-1.3c3-2.4,4.1-5.6,4.6-7.3c2.7-1.2,5.3-1,6.4,0.3
			c0.6,0.7,0.7,1.6,0.7,2.4c0.2,2.2-0.7,3.9-1.1,4.7c-0.6,1-1.3,2.1-2.2,3.3c-1.5,1.9-3.8,4.2-7.2,6l-0.4,15.9c0,0,6,4,14.5-2.4
			c0,0,4.4-4.1,4.3-12.6c0,0,8.4-1.1,11.2-9c2.8-7.9-4.2-15.7-4.2-15.7s-5.4-9.8-25.3-5.1c0,0-5.8-16.4-23.6-19.8
			c0,0-18.7-3.6-30.6,13.6c0,0-5.2,2.5-6.8-1.3c-1.6-3.8,1.7-6.3,1.7-6.3l8.4-8.1c0,0-3.6-13-22.4-15.8l-8.2-0.2c0,0-5-1.9-3.6-5.3
			c1.4-3.4,4.6-3.8,4.6-3.8s26.6-0.9,37.4,20.7c0,0,27.5-12.2,47.6,15.9l16.1,1.2c0,0,5.1-28-31.5-27.1c0,0-6.2-34.6-40.1-16.2
			C233.7,142.9,220.7,116.8,197.5,126.8z"/>
		<path id="XMLID_25_" class="st0" d="M196.4,272.1h-43.8l-3.1,23.8c4.9,6.3,8.6,12.3,11.3,17.2c2.7,5,4.6,9.5,7.8,16.9
			c2.2,5.2,4,9.5,5.2,12.7c0.1,0.5,0.3,0.9,0.4,1.4c-1.8,0.6-3.1,2.4-3.1,4.5c0,2.6,2,4.7,4.4,4.7c2.4,0,4.4-2.1,4.4-4.7
			c0-2.2-1.4-4-3.2-4.5c0.1-0.5,0.2-0.9,0.4-1.4c1.2-3.2,2.8-7.6,4.9-12.9c3-7.5,4.7-12.1,7.3-17.1c2.6-5,6.1-11.1,10.8-17.5
			L196.4,272.1z M177.2,297.6c-0.8,25.3-1.3,39.6-1.5,46.2c0,0-0.1,0-0.1,0c-0.1,0-0.2,0-0.3,0c-0.5-7.6-1.5-24.2-2.9-46.2
			c-2.7-1.1-4.6-3.9-4.6-7.2c-0.1-4.3,3-7.9,6.9-7.9c3.9-0.1,7,3.4,7.1,7.7C181.7,293.5,179.9,296.4,177.2,297.6z"/>
		<path id="XMLID_19_" class="st0" d="M197,269.5h-44.9c1.5-1.6,3.1-3.8,4.3-6.5c0.4-0.9,0.7-1.7,1-2.6c1.5,0.4,3.2,0.7,5.1,0.8
			c10.2,0.6,18.1-5.1,21.4-7.7c0.4,2,1.6,5.9,4.7,9.6C191.4,266.6,194.8,268.5,197,269.5z"/>
	</g>
	<text id="XMLID_4_" transform="matrix(1 0 0 1 209.5747 316.5996)"><tspan x="0" y="0" class="st1 st2 st3">SK</tspan><tspan x="79.8" y="0" class="st1 st2 st4">  </tspan></text>
	<text id="XMLID_7_" transform="matrix(1 0 0 1 212.4404 353.208)" class="st5 st6 st7">Design Studio </text>
</g>
</svg>
